<?xml version="1.0" encoding="utf-8"?>
<!-- Generator: Adobe Illustrator 28.0.0, SVG Export Plug-In . SVG Version: 6.00 Build 0)  -->
<svg version="1.1" id="Camada_1" xmlns="http://www.w3.org/2000/svg" xmlns:xlink="http://www.w3.org/1999/xlink" x="0px" y="0px"
	 viewBox="0 0 24 24" style="enable-background:new 0 0 24 24;" xml:space="preserve">
<style type="text/css">
	.st0{fill:#25A17C;}
	.st1{fill:#FFFFFF;}
	.st2{fill:#6177B9;}
	.st3{fill:#C0C9E8;}
	.st4{fill:#8294CB;}
	.st5{fill:#FEFEFF;}
	.st6{fill:#2956A3;}
	.st7{fill:#1D304D;}
	.st8{fill:#3272B9;}
</style>
<g>
	<circle class="st7" cx="12" cy="12" r="11.9"/>
	<path class="st1" d="M16.8,13.1H17c1.1,0,1.6-0.5,1.6-1.6V6.7c0-1.1-0.5-1.6-1.6-1.6h-3.5h-3.1H7c-1.1,0-1.6,0.5-1.6,1.6v4.8
		c0,1.1,0.5,1.6,1.6,1.6h0.2L5,18.8v0.1h3.2l1.9-5.2v-2.5H8.5V7.7h1.9v11.2h0h3.1h0V7.7h1.9v3.5h-1.6v2.5l1.9,5.2H19v-0.1L16.8,13.1
		z"/>
</g>
</svg>
