<?xml version="1.0" encoding="utf-8"?>
<!-- Generator: Adobe Illustrator 28.0.0, SVG Export Plug-In . SVG Version: 6.00 Build 0)  -->
<svg version="1.1" id="Camada_1" xmlns="http://www.w3.org/2000/svg" xmlns:xlink="http://www.w3.org/1999/xlink" x="0px" y="0px"
	 viewBox="0 0 24 24" style="enable-background:new 0 0 24 24;" xml:space="preserve">
<style type="text/css">
	.st0{fill:#25A17C;}
	.st1{fill:#FFFFFF;}
	.st2{fill:#6177B9;}
	.st3{fill:#C0C9E8;}
	.st4{fill:#8294CB;}
	.st5{fill:#FEFEFF;}
	.st6{fill:#2956A3;}
	.st7{fill:#1D304D;}
	.st8{fill:#3272B9;}
</style>
<g>
	<path class="st6" d="M0.1,12C0.2,5.4,5.4,0.2,12,0.1c6.6,0,11.8,5.2,11.9,11.8c0,6.6-5.3,11.9-11.8,11.9C5.4,23.9,0.2,18.6,0.1,12z
		 M14.1,3.3c0,0.1,0,0.2,0,0.2c0,0.4,0,0.8,0,1.2c0,0.1,0,0.2,0.2,0.2c1.4,0.5,2.6,1.3,3.6,2.5c0.9,1.2,1.4,2.6,1.6,4.1
		c0,0.6,0,1.2-0.1,1.9c-0.3,1.3-0.8,2.5-1.7,3.5c-0.9,1-2,1.7-3.3,2.1c-0.1,0-0.1,0.1-0.1,0.2c0,0.4,0,0.8,0,1.2
		c0,0.2,0,0.2,0.2,0.1c1.9-0.5,3.5-1.5,4.7-3.1c1.2-1.5,1.8-3.2,1.9-5c0-0.9,0-1.8-0.3-2.7c-0.8-2.8-2.5-4.8-5.2-6
		C15,3.6,14.6,3.5,14.1,3.3z M9.9,20.6c0-0.1,0-0.1,0-0.2c0-0.4,0-0.8,0-1.1c0-0.1-0.1-0.2-0.2-0.3c-1.4-0.5-2.6-1.3-3.5-2.5
		c-0.9-1.2-1.4-2.5-1.5-4c0-0.6,0-1.3,0.1-1.9C5,9.3,5.5,8.1,6.5,7.1c0.9-1,2-1.7,3.3-2.1c0.1,0,0.2-0.1,0.2-0.2c0-0.4,0-0.8,0-1.2
		c0-0.1,0-0.1,0-0.2C6.3,4.2,3.1,7.5,3.1,12C3.1,16.3,6.1,19.7,9.9,20.6z M10.3,10.4c0-0.1,0.1-0.1,0.1-0.2c0.5-0.9,1.2-1.3,2.2-1.4
		c0.6-0.1,1.2,0,1.8,0.3c0.1,0,0.1,0,0.2-0.1c0.1-0.3,0.2-0.6,0.4-0.8C15,8.1,15,8,14.8,8c-0.8-0.4-1.7-0.5-2.6-0.4
		c-1.6,0.3-2.8,1.1-3.4,2.7c0,0.1-0.1,0.1-0.2,0.1c-0.3,0-0.5,0-0.8,0c-0.1,0-0.1,0-0.2,0c0,0.3,0,0.7,0,1c0,0.1,0.1,0.1,0.1,0.1
		c0.2,0,0.4,0,0.6,0c0.1,0,0.1,0,0.1,0.1c0,0.2,0,0.5,0,0.7c0,0.1,0,0.2-0.1,0.1c-0.2,0-0.4,0-0.6,0c0,0-0.1,0-0.1,0.1
		c0,0.3,0,0.7,0,1c0.3,0,0.6,0,0.9,0c0.2,0,0.2,0,0.3,0.2c0.4,1,1.1,1.7,2,2.2c0.8,0.4,1.6,0.5,2.4,0.5c0.6,0,1.1-0.2,1.6-0.4
		c0.1,0,0.1-0.1,0.1-0.2c-0.1-0.3-0.3-0.6-0.4-0.9c0-0.1-0.1-0.1-0.2-0.1c-0.7,0.2-1.3,0.3-2,0.2c-0.9-0.1-1.5-0.6-2-1.4
		c0,0,0-0.1-0.1-0.2c0.1,0,0.1,0,0.2,0c0.7,0,1.3,0,2,0c0.1,0,0.2,0,0.2-0.1c0.1-0.3,0.2-0.5,0.3-0.8c0,0,0-0.1,0-0.2
		c-0.2,0-0.3,0-0.5,0c-0.8,0-1.6,0-2.4,0c-0.1,0-0.2,0-0.2-0.2c0-0.2,0-0.4,0-0.6c0-0.2,0-0.2,0.2-0.2c1,0,2.1,0,3.1,0
		c0.1,0,0.2,0,0.2-0.2c0.1-0.2,0.1-0.3,0.2-0.5c0.1-0.1,0.1-0.3,0.2-0.4C12.8,10.4,11.6,10.4,10.3,10.4z"/>
	<path class="st1" d="M14.1,3.3c0.4,0.2,0.9,0.3,1.3,0.5c2.7,1.2,4.4,3.2,5.2,6c0.2,0.9,0.3,1.8,0.3,2.7c-0.1,1.9-0.7,3.6-1.9,5
		c-1.2,1.6-2.8,2.6-4.7,3.1c-0.2,0-0.2,0-0.2-0.1c0-0.4,0-0.8,0-1.2c0-0.1,0-0.2,0.1-0.2c1.3-0.4,2.4-1.1,3.3-2.1
		c0.9-1,1.5-2.2,1.7-3.5c0.1-0.6,0.2-1.2,0.1-1.9c-0.1-1.5-0.6-2.9-1.6-4.1c-0.9-1.2-2.1-2-3.6-2.5c-0.1,0-0.2-0.1-0.2-0.2
		c0-0.4,0-0.8,0-1.2C14.1,3.5,14.1,3.4,14.1,3.3z"/>
	<path class="st1" d="M9.9,20.6c-3.7-0.9-6.8-4.3-6.8-8.7c0-4.4,3.2-7.8,6.8-8.6c0,0.1,0,0.1,0,0.2c0,0.4,0,0.8,0,1.2
		c0,0.1,0,0.2-0.2,0.2C8.4,5.4,7.3,6.1,6.5,7.1c-0.9,1-1.5,2.2-1.7,3.5c-0.1,0.6-0.2,1.3-0.1,1.9c0.1,1.5,0.6,2.9,1.5,4
		c0.9,1.2,2.1,2,3.5,2.5c0.1,0,0.2,0.1,0.2,0.3c0,0.4,0,0.8,0,1.1C9.9,20.5,9.9,20.6,9.9,20.6z"/>
	<path class="st1" d="M10.3,10.4c1.2,0,2.4,0,3.7,0c-0.1,0.2-0.1,0.3-0.2,0.4c-0.1,0.2-0.1,0.3-0.2,0.5c0,0.1-0.1,0.2-0.2,0.2
		c-1,0-2.1,0-3.1,0c-0.2,0-0.2,0-0.2,0.2c0,0.2,0,0.4,0,0.6c0,0.1,0.1,0.2,0.2,0.2c0.8,0,1.6,0,2.4,0c0.2,0,0.3,0,0.5,0
		c0,0.1,0,0.1,0,0.2c-0.1,0.3-0.2,0.5-0.3,0.8c0,0.1-0.1,0.1-0.2,0.1c-0.7,0-1.3,0-2,0c-0.1,0-0.1,0-0.2,0c0,0.1,0,0.1,0.1,0.2
		c0.4,0.8,1.1,1.2,2,1.4c0.7,0.1,1.4,0,2-0.2c0.1,0,0.2,0,0.2,0.1c0.1,0.3,0.2,0.6,0.4,0.9c0,0.1,0,0.2-0.1,0.2
		c-0.5,0.2-1,0.4-1.6,0.4c-0.9,0.1-1.7-0.1-2.4-0.5c-0.9-0.5-1.6-1.2-2-2.2c-0.1-0.2-0.1-0.2-0.3-0.2c-0.3,0-0.6,0-0.9,0
		c0-0.4,0-0.7,0-1c0,0,0.1-0.1,0.1-0.1c0.2,0,0.4,0,0.6,0c0.1,0,0.1,0,0.1-0.1c0-0.2,0-0.5,0-0.7c0-0.1,0-0.1-0.1-0.1
		c-0.2,0-0.4,0-0.6,0c-0.1,0-0.1,0-0.1-0.1c0-0.3,0-0.7,0-1c0.1,0,0.1,0,0.2,0c0.3,0,0.5,0,0.8,0c0.1,0,0.1,0,0.2-0.1
		c0.6-1.6,1.8-2.4,3.4-2.7c0.9-0.1,1.7,0,2.6,0.4C15,8,15,8.1,14.9,8.2c-0.1,0.3-0.2,0.6-0.4,0.8c0,0.1-0.1,0.1-0.2,0.1
		c-0.6-0.2-1.2-0.3-1.8-0.3c-1,0.1-1.7,0.5-2.2,1.4C10.4,10.3,10.4,10.3,10.3,10.4z"/>
</g>
</svg>
