<?xml version="1.0" encoding="utf-8"?>
<!-- Generator: Adobe Illustrator 28.0.0, SVG Export Plug-In . SVG Version: 6.00 Build 0)  -->
<svg version="1.1" id="Camada_1" xmlns="http://www.w3.org/2000/svg" xmlns:xlink="http://www.w3.org/1999/xlink" x="0px" y="0px"
	 viewBox="0 0 335.7 64" style="enable-background:new 0 0 335.7 64;" xml:space="preserve">
<style type="text/css">
	.st0{fill:#D4A95E;}
	.st1{fill:#3C3C3B;}
	.st2{fill:#FFFFFF;}
	.st3{fill:url(#SVGID_1_);}
	.st4{fill:url(#SVGID_00000070799739693618474720000005785438052734634403_);}
	.st5{fill:url(#SVGID_00000140721872589248645600000000100625335189792388_);}
</style>
<path class="st0" d="M302.8,44.4h-45.2c-4.4,0-8-3.6-8-8V30c0-4.4,3.6-8,8-8h45.2c4.4,0,8,3.6,8,8v6.4
	C310.8,40.8,307.2,44.4,302.8,44.4z"/>
<g>
	<path class="st1" d="M116.5,24h2.6v18.5h-2.6V24z M117.9,32.9h5.9c0.6,0,1.1-0.1,1.5-0.4s0.8-0.6,1-1.1c0.2-0.5,0.4-1,0.4-1.7
		c0-0.6-0.1-1.2-0.4-1.7c-0.2-0.5-0.6-0.9-1-1.1s-0.9-0.4-1.5-0.4h-5.9V24h5.8c1.1,0,2.1,0.2,2.9,0.7c0.8,0.5,1.5,1.1,2,2
		c0.5,0.9,0.7,1.9,0.7,3s-0.2,2.1-0.7,3c-0.5,0.9-1.1,1.5-2,2c-0.8,0.5-1.8,0.7-2.9,0.7h-5.8V32.9z"/>
	<path class="st1" d="M132.8,24h2.6v18.5h-2.6V24z M133.9,32.2h6.3c0.5,0,0.9-0.1,1.3-0.4c0.4-0.2,0.7-0.6,0.9-1
		c0.2-0.4,0.3-0.9,0.3-1.5c0-0.6-0.1-1.1-0.3-1.5c-0.2-0.4-0.5-0.8-0.9-1c-0.4-0.2-0.8-0.4-1.3-0.4h-6.3V24h6.2c1.1,0,2,0.2,2.8,0.7
		c0.8,0.4,1.4,1.1,1.9,1.9c0.4,0.8,0.7,1.7,0.7,2.8s-0.2,2-0.7,2.8c-0.5,0.8-1.1,1.4-1.9,1.9c-0.8,0.4-1.7,0.7-2.8,0.7h-6.2V32.2z
		 M139,34.1l2.6-0.6l4.7,9h-3.1L139,34.1z"/>
	<path class="st1" d="M152.5,41.9c-1-0.6-1.7-1.4-2.3-2.4c-0.5-1-0.8-2.2-0.8-3.6v-5.3c0-1.4,0.3-2.6,0.8-3.6c0.5-1,1.3-1.8,2.3-2.4
		c1-0.6,2.1-0.8,3.4-0.8c1.3,0,2.4,0.3,3.4,0.8c1,0.6,1.7,1.4,2.3,2.4c0.5,1,0.8,2.2,0.8,3.6v5.3c0,1.4-0.3,2.6-0.8,3.6
		c-0.5,1-1.3,1.8-2.3,2.4c-1,0.6-2.1,0.8-3.4,0.8C154.6,42.7,153.5,42.4,152.5,41.9z M158,39.6c0.6-0.3,1-0.8,1.4-1.5
		s0.5-1.4,0.5-2.2v-5.4c0-0.8-0.2-1.6-0.5-2.2c-0.3-0.6-0.8-1.1-1.4-1.5c-0.6-0.3-1.3-0.5-2-0.5s-1.4,0.2-2,0.5s-1,0.8-1.4,1.5
		c-0.3,0.6-0.5,1.4-0.5,2.2V36c0,0.8,0.2,1.6,0.5,2.2c0.3,0.6,0.8,1.1,1.4,1.5c0.6,0.3,1.3,0.5,2,0.5S157.4,40,158,39.6z"/>
	<path class="st1" d="M164.1,24h13.1v2.5h-13.1V24z M169.3,25.5h2.6v17h-2.6V25.5z"/>
	<path class="st1" d="M181.9,41.9c-1-0.6-1.7-1.4-2.3-2.4c-0.5-1-0.8-2.2-0.8-3.6v-5.3c0-1.4,0.3-2.6,0.8-3.6c0.5-1,1.3-1.8,2.3-2.4
		c1-0.6,2.1-0.8,3.4-0.8c1.3,0,2.4,0.3,3.4,0.8c1,0.6,1.7,1.4,2.3,2.4c0.5,1,0.8,2.2,0.8,3.6v5.3c0,1.4-0.3,2.6-0.8,3.6
		c-0.5,1-1.3,1.8-2.3,2.4c-1,0.6-2.1,0.8-3.4,0.8C184.1,42.7,182.9,42.4,181.9,41.9z M187.4,39.6c0.6-0.3,1-0.8,1.4-1.5
		s0.5-1.4,0.5-2.2v-5.4c0-0.8-0.2-1.6-0.5-2.2c-0.3-0.6-0.8-1.1-1.4-1.5c-0.6-0.3-1.3-0.5-2-0.5s-1.4,0.2-2,0.5s-1,0.8-1.4,1.5
		c-0.3,0.6-0.5,1.4-0.5,2.2V36c0,0.8,0.2,1.6,0.5,2.2c0.3,0.6,0.8,1.1,1.4,1.5c0.6,0.3,1.3,0.5,2,0.5S186.8,40,187.4,39.6z"/>
	<path class="st1" d="M198.8,41.9c-1-0.6-1.7-1.4-2.3-2.4c-0.5-1-0.8-2.3-0.8-3.6v-5.1c0-1.4,0.3-2.6,0.8-3.6c0.5-1,1.3-1.9,2.3-2.4
		c1-0.6,2.1-0.9,3.4-0.9c1.1,0,2,0.2,2.9,0.7c0.9,0.5,1.6,1.1,2.2,1.9c0.6,0.8,1,1.8,1.2,2.9h-2.7c-0.2-0.6-0.4-1.1-0.8-1.5
		s-0.8-0.8-1.3-1.1c-0.5-0.2-1-0.4-1.6-0.4c-0.8,0-1.4,0.2-2,0.5s-1,0.9-1.3,1.5c-0.3,0.7-0.5,1.4-0.5,2.3v5.1
		c0,0.9,0.2,1.6,0.5,2.3s0.8,1.2,1.3,1.5c0.6,0.4,1.2,0.5,2,0.5c0.6,0,1.1-0.1,1.6-0.3c0.5-0.2,0.9-0.6,1.3-1s0.6-1,0.8-1.6h2.7
		c-0.2,1.1-0.6,2.1-1.2,2.9s-1.4,1.5-2.2,1.9c-0.9,0.5-1.9,0.7-2.9,0.7C200.9,42.7,199.7,42.4,198.8,41.9z"/>
	<path class="st1" d="M214.9,41.9c-1-0.6-1.7-1.4-2.3-2.4c-0.5-1-0.8-2.2-0.8-3.6v-5.3c0-1.4,0.3-2.6,0.8-3.6c0.5-1,1.3-1.8,2.3-2.4
		c1-0.6,2.1-0.8,3.4-0.8c1.3,0,2.4,0.3,3.4,0.8c1,0.6,1.7,1.4,2.3,2.4c0.5,1,0.8,2.2,0.8,3.6v5.3c0,1.4-0.3,2.6-0.8,3.6
		c-0.5,1-1.3,1.8-2.3,2.4c-1,0.6-2.1,0.8-3.4,0.8C217.1,42.7,215.9,42.4,214.9,41.9z M220.4,39.6c0.6-0.3,1-0.8,1.4-1.5
		s0.5-1.4,0.5-2.2v-5.4c0-0.8-0.2-1.6-0.5-2.2c-0.3-0.6-0.8-1.1-1.4-1.5c-0.6-0.3-1.3-0.5-2-0.5s-1.4,0.2-2,0.5s-1,0.8-1.4,1.5
		c-0.3,0.6-0.5,1.4-0.5,2.2V36c0,0.8,0.2,1.6,0.5,2.2c0.3,0.6,0.8,1.1,1.4,1.5c0.6,0.3,1.3,0.5,2,0.5S219.8,40,220.4,39.6z"/>
	<path class="st1" d="M229.1,24h2.6v18.5h-2.6V24z M230.4,40.1H241v2.5h-10.6V40.1z"/>
</g>
<g>
	<path class="st2" d="M258.2,26h2v14.7h-2V26z M259.4,38.8h4c1,0,1.8-0.2,2.3-0.6c0.5-0.4,0.7-1,0.7-1.7v0c0-0.5-0.1-0.9-0.3-1.3
		c-0.2-0.4-0.4-0.6-0.8-0.8s-0.8-0.3-1.4-0.3h-4.5v-1.9h4.5c0.8,0,1.3-0.2,1.7-0.5c0.4-0.4,0.6-0.9,0.6-1.6c0-0.7-0.2-1.3-0.6-1.6
		c-0.4-0.4-1.1-0.5-1.9-0.5h-4.2V26h4.6c0.9,0,1.7,0.2,2.4,0.5c0.6,0.3,1.1,0.8,1.4,1.4s0.5,1.3,0.5,2.1c0,0.5-0.1,1-0.3,1.4
		c-0.2,0.4-0.5,0.8-0.9,1.1c-0.4,0.3-0.9,0.5-1.5,0.6c0.6,0.1,1.1,0.3,1.5,0.6c0.4,0.3,0.8,0.7,1,1.2c0.2,0.5,0.3,1,0.3,1.6v0
		c0,0.8-0.2,1.5-0.5,2.1c-0.3,0.6-0.9,1.1-1.5,1.4c-0.7,0.3-1.4,0.5-2.3,0.5h-4.7V38.8z"/>
	<path class="st2" d="M271.6,26h2.1v14.7h-2.1V26z M272.6,26h8.4v2h-8.4V26z M272.6,32.4h7.3v2h-7.3V32.4z M272.6,38.7h8.4v2h-8.4
		V38.7z"/>
	<path class="st2" d="M281.9,26h10.4v2h-10.4V26z M286,27.2h2.1v13.5H286V27.2z"/>
	<path class="st2" d="M297.7,26h1.8l5.4,14.7h-2.2l-4.1-11.8l-4.1,11.8h-2.2L297.7,26z M294.7,35.5h7.7v2h-7.7V35.5z"/>
</g>
<g>
	<linearGradient id="SVGID_1_" gradientUnits="userSpaceOnUse" x1="-16.7548" y1="-40.5006" x2="85.645" y2="61.5227">
		<stop  offset="0" style="stop-color:#FFFFFF"/>
		<stop  offset="1" style="stop-color:#4D4D4C"/>
	</linearGradient>
	<path class="st3" d="M43.3,14.5v15.7c0,3.6,1.7,5.3,5.2,5.3h0.5l-7.1,18.8v0.4h10.6l6.3-17.3v-8.1h-5.3V17.8H60v36.9h10.1V9.2H48.5
		C45,9.2,43.3,11,43.3,14.5z"/>
	
		<linearGradient id="SVGID_00000082331952132219998930000002456241380092921524_" gradientUnits="userSpaceOnUse" x1="-1.3129" y1="-55.9995" x2="101.0869" y2="46.0239">
		<stop  offset="0" style="stop-color:#FFFFFF"/>
		<stop  offset="1" style="stop-color:#000000"/>
	</linearGradient>
	<path style="fill:url(#SVGID_00000082331952132219998930000002456241380092921524_);" d="M95.9,35.6h0.5c3.5,0,5.2-1.7,5.2-5.3
		V14.5c0-3.6-1.7-5.3-5.2-5.3H74.9v45.5H85V17.8h6.4v11.6h-5.3v8.1l6.3,17.3h10.6v-0.4L95.9,35.6z"/>
	
		<linearGradient id="SVGID_00000095314864624148879950000005699790688091818647_" gradientUnits="userSpaceOnUse" x1="-34.8006" y1="-22.3882" x2="67.5992" y2="79.6351">
		<stop  offset="0" style="stop-color:#FFFFFF"/>
		<stop  offset="1" style="stop-color:#000000"/>
	</linearGradient>
	<polygon style="fill:url(#SVGID_00000095314864624148879950000005699790688091818647_);" points="19,9.2 9.4,54.6 9.4,54.7 
		19.6,54.7 20.6,47.9 20.7,47.9 24.6,23.8 28.5,47.9 28.5,47.9 29.6,54.7 39.7,54.7 39.7,54.6 30.1,9.2 	"/>
</g>
</svg>
