<?xml version="1.0" encoding="utf-8"?>
<!-- Generator: Adobe Illustrator 28.0.0, SVG Export Plug-In . SVG Version: 6.00 Build 0)  -->
<svg version="1.1" id="Camada_1" xmlns="http://www.w3.org/2000/svg" xmlns:xlink="http://www.w3.org/1999/xlink" x="0px" y="0px"
	 viewBox="0 0 129.8 64" style="enable-background:new 0 0 129.8 64;" xml:space="preserve">
<g>
	<path d="M47.2,8.7v20.9c0,4.8,2.3,7.1,6.9,7.1h0.7l-9.5,25v0.5h14.1l8.4-23V28.4h-7.1V13.1h8.7v49.2h13.5V1.6H54.1
		C49.4,1.6,47.2,4,47.2,8.7z"/>
	<path d="M117.2,36.8h0.7c4.7,0,6.9-2.3,6.9-7.1v-21c0-4.8-2.3-7.1-6.9-7.1H89.3v60.6h13.5V13.1h8.5v15.5h-7.1v10.8l8.4,23h14.1
		v-0.5L117.2,36.8z"/>
	<polygon points="14.8,1.6 2,62.1 2,62.2 15.6,62.2 16.9,53.2 17.1,53.2 22.2,21.1 27.4,53.2 27.4,53.2 28.9,62.2 42.4,62.2 
		42.4,62.1 29.6,1.6 	"/>
</g>
</svg>
