<?xml version="1.0" encoding="utf-8"?>
<!-- Generator: Adobe Illustrator 28.0.0, SVG Export Plug-In . SVG Version: 6.00 Build 0)  -->
<svg version="1.1" id="Camada_1" xmlns="http://www.w3.org/2000/svg" xmlns:xlink="http://www.w3.org/1999/xlink" x="0px" y="0px"
	 viewBox="0 0 129.8 64" style="enable-background:new 0 0 129.8 64;" xml:space="preserve">
<style type="text/css">
	.st0{fill:url(#SVGID_1_);}
	.st1{fill:url(#SVGID_00000159459685600675699190000009921876449179190946_);}
	.st2{fill:url(#SVGID_00000101782086408879455770000004717540536834161335_);}
</style>
<g>
	<linearGradient id="SVGID_1_" gradientUnits="userSpaceOnUse" x1="64.1" y1="-27.11" x2="64.1" y2="66.143">
		<stop  offset="0" style="stop-color:#96989D"/>
		<stop  offset="0.9984" style="stop-color:#3B4B6A"/>
	</linearGradient>
	<path class="st0" d="M47.2,8.7v20.9c0,4.8,2.3,7.1,6.9,7.1h0.7l-9.5,25v0.5h14.1l8.4-23V28.4h-7.1V13.1h8.7v49.2h13.5V1.6H54.1
		C49.4,1.6,47.2,4,47.2,8.7z"/>
	
		<linearGradient id="SVGID_00000141416196430087564250000004257890529579055774_" gradientUnits="userSpaceOnUse" x1="108" y1="-27.11" x2="108" y2="66.143">
		<stop  offset="0" style="stop-color:#96989D"/>
		<stop  offset="0.9984" style="stop-color:#3B4B6A"/>
	</linearGradient>
	<path style="fill:url(#SVGID_00000141416196430087564250000004257890529579055774_);" d="M117.2,36.8h0.7c4.7,0,6.9-2.3,6.9-7.1
		v-21c0-4.8-2.3-7.1-6.9-7.1H89.3v60.6h13.5V13.1h8.5v15.5h-7.1v10.8l8.4,23h14.1v-0.5L117.2,36.8z"/>
	
		<linearGradient id="SVGID_00000182486839601849332380000010627895976540694664_" gradientUnits="userSpaceOnUse" x1="22.2" y1="-27.11" x2="22.2" y2="66.143">
		<stop  offset="0" style="stop-color:#96989D"/>
		<stop  offset="0.9984" style="stop-color:#3B4B6A"/>
	</linearGradient>
	<polygon style="fill:url(#SVGID_00000182486839601849332380000010627895976540694664_);" points="14.8,1.6 2,62.1 2,62.2 
		15.6,62.2 16.9,53.2 17.1,53.2 22.2,21.1 27.4,53.2 27.4,53.2 28.9,62.2 42.4,62.2 42.4,62.1 29.6,1.6 	"/>
</g>
</svg>
