<?xml version="1.0" encoding="utf-8"?>
<!-- Generator: Adobe Illustrator 28.0.0, SVG Export Plug-In . SVG Version: 6.00 Build 0)  -->
<svg version="1.1" id="Camada_1" xmlns="http://www.w3.org/2000/svg" xmlns:xlink="http://www.w3.org/1999/xlink" x="0px" y="0px"
	 viewBox="0 0 24 24" style="enable-background:new 0 0 24 24;" xml:space="preserve">
<style type="text/css">
	.st0{fill:#25A17C;}
	.st1{fill:#FFFFFF;}
	.st2{fill:#6177B9;}
	.st3{fill:#C0C9E8;}
	.st4{fill:#8294CB;}
	.st5{fill:#FEFEFF;}
	.st6{fill:#2956A3;}
	.st7{fill:#1D304D;}
	.st8{fill:#3272B9;}
</style>
<g>
	<path class="st8" d="M12.9,0.2c0.4,0,0.9,0,1.3,0.1c1,0.2,2,0.5,3,1c0.6,0.3,1.2,0.7,1.8,1.1c0.8,0.6,1.5,1.3,2.1,2
		c0.8,0.9,1.4,1.9,1.8,3c0.5,1.2,0.8,2.3,0.8,3.6c0,0.1,0,0.2,0.1,0.3c0,0.5,0,0.9,0,1.4c-0.1,0-0.1,0.2-0.1,0.3
		c0,0.4,0,0.9-0.1,1.3c-0.2,1-0.5,2-1,3c-0.3,0.6-0.7,1.2-1.1,1.8c-0.6,0.8-1.3,1.5-2,2.1c-0.9,0.8-1.9,1.4-3,1.8
		c-1.2,0.5-2.3,0.8-3.6,0.8c-0.1,0-1.8,0-1.9,0c-0.4,0-0.9,0-1.3-0.1c-1-0.2-2-0.5-3-1c-0.6-0.3-1.2-0.7-1.8-1.1
		c-0.8-0.6-1.5-1.3-2.1-2c-0.7-0.9-1.4-1.9-1.8-3c-0.5-1.2-0.8-2.3-0.8-3.6c0-0.1,0-0.2-0.1-0.3c0-0.5,0-0.9,0-1.4
		c0.1,0,0.1-0.2,0.1-0.3c0-0.4,0-0.9,0.1-1.3c0.2-1,0.5-2,1-3C1.7,6.1,2.1,5.5,2.5,5c0.6-0.8,1.3-1.5,2-2.1c0.9-0.8,1.9-1.4,3-1.8
		c1.2-0.5,2.3-0.8,3.6-0.8C11.1,0.2,12.2,0.2,12.9,0.2z M11.2,17.1c0,0.2,0,0.4,0,0.5c0,0.2,0.2,0.4,0.4,0.4c0.1,0,0.2,0,0.3,0
		c0.9,0,0.9,0,0.9-0.9c0-0.2,0-0.5,0-0.7c0.2-0.1,0.4-0.1,0.6-0.2c1.3-0.5,2.2-1.7,1.8-3.2c-0.1-0.5-0.4-0.9-0.8-1.2
		c-0.4-0.3-0.9-0.4-1.3-0.5c-0.4-0.1-0.9-0.1-1.3-0.2c-0.3-0.1-0.6-0.1-0.9-0.3c-0.4-0.2-0.6-0.8-0.5-1.2c0.2-0.5,0.5-0.7,1-0.8
		c0.7-0.2,1.7,0.1,2,0.9c0.1,0.3,0.3,0.4,0.6,0.4c0.2,0,0.4,0,0.6,0c0.3,0,0.5-0.2,0.4-0.5C14.7,9,14.4,8.3,13.6,8
		c-0.2-0.1-0.4-0.2-0.7-0.3c-0.1,0-0.2-0.1-0.2-0.2c0-0.3,0-0.6,0-0.8c0-0.3-0.2-0.5-0.5-0.5c-0.2,0-0.4,0-0.6,0
		c-0.3,0-0.5,0.2-0.5,0.5c0,0.3,0,0.6,0,0.8c0,0.2,0,0.2-0.2,0.3C9.7,8,8.6,8.9,8.8,10.6c0.1,0.7,0.5,1.1,1,1.5
		c0.5,0.3,1,0.4,1.5,0.5c0.6,0.1,1.2,0.1,1.7,0.4c0.1,0.1,0.2,0.1,0.4,0.2c0.5,0.4,0.4,1.3-0.1,1.7c-0.4,0.3-0.9,0.4-1.3,0.4
		c-0.2,0-0.4,0-0.6-0.1c-0.4-0.1-0.7-0.2-0.9-0.6c-0.1-0.2-0.2-0.4-0.3-0.6c-0.1-0.1-0.1-0.2-0.3-0.2c-0.3,0-0.6,0-0.9,0
		c-0.2,0-0.4,0.2-0.4,0.4c0.2,0.5,0.3,1,0.7,1.4c0.5,0.5,1.1,0.8,1.7,0.9c0.2,0,0.3,0.1,0.2,0.3C11.2,16.9,11.2,17,11.2,17.1z
		 M20.9,12.1c0-0.5,0-1-0.1-1.5c-0.2-1-0.5-2-1.1-3c-0.6-1-1.3-1.8-2.1-2.5c-0.7-0.5-1.4-0.9-2.2-1.3c-0.2-0.1-0.4-0.1-0.5-0.2
		c-0.5-0.2-0.7,0-0.7,0.5c0,0.2,0,0.3,0,0.5c0,0.3,0.2,0.6,0.5,0.7c1.3,0.5,2.4,1.3,3.2,2.4c0.8,1.1,1.3,2.3,1.4,3.6
		c0.1,0.8,0.1,1.7-0.1,2.4c-0.2,0.9-0.5,1.7-1.1,2.5c-0.8,1.2-1.9,2.1-3.3,2.7c-0.7,0.3-0.7,0.3-0.7,1c0,0.1,0,0.1,0,0.2
		c0,0.5,0.2,0.6,0.7,0.5c0.5-0.1,0.9-0.3,1.3-0.5c1.7-0.8,3-2.2,3.8-3.8C20.6,15,21,13.6,20.9,12.1z M3.1,12.2c0,0.4,0,0.9,0.1,1.4
		c0.2,0.8,0.4,1.5,0.7,2.2c0.5,1.1,1.2,2,2.1,2.8c1,0.9,2.1,1.5,3.3,1.9c0.3,0.1,0.5,0,0.6-0.2c0.1-0.6,0.1-1.2-0.6-1.5
		c-0.9-0.3-1.7-0.9-2.3-1.5c-0.4-0.4-0.8-0.9-1.1-1.4c-0.7-1.1-1-2.3-1-3.6c0-0.4,0-0.8,0-1.2C4.8,10.5,5,9.9,5.2,9.3
		c0.3-0.7,0.7-1.4,1.2-2c0.8-1,1.9-1.6,3-2.1c0.3-0.1,0.4-0.3,0.4-0.5c0-0.2,0-0.4,0-0.5c0-0.4-0.3-0.6-0.7-0.5
		C8.9,3.7,8.6,3.9,8.3,4C7.5,4.3,6.8,4.8,6.2,5.4c-1,0.8-1.8,1.8-2.3,3c-0.5,1.1-0.8,2.1-0.8,3.3C3.1,11.8,3.1,12,3.1,12.2z"/>
	<path class="st1" d="M11.2,17.1c0-0.1,0-0.2,0-0.4c0-0.2,0-0.3-0.2-0.3c-0.7-0.1-1.2-0.4-1.7-0.9c-0.4-0.4-0.5-0.9-0.7-1.4
		C8.5,14,8.7,13.7,9,13.7c0.3,0,0.6,0,0.9,0c0.2,0,0.3,0.1,0.3,0.2c0.1,0.2,0.2,0.4,0.3,0.6c0.2,0.4,0.5,0.5,0.9,0.6
		c0.2,0.1,0.4,0.1,0.6,0.1c0.5,0,0.9-0.1,1.3-0.4c0.5-0.4,0.6-1.4,0.1-1.7c-0.1-0.1-0.2-0.1-0.4-0.2c-0.5-0.3-1.1-0.3-1.7-0.4
		c-0.5-0.1-1-0.2-1.5-0.5c-0.6-0.3-1-0.8-1-1.5C8.6,8.9,9.7,8,11,7.7c0.2,0,0.2-0.1,0.2-0.3c0-0.3,0-0.6,0-0.8
		c0-0.3,0.2-0.5,0.5-0.5c0.2,0,0.4,0,0.6,0c0.3,0,0.5,0.2,0.5,0.5c0,0.3,0,0.6,0,0.8c0,0.1,0,0.2,0.2,0.2c0.2,0.1,0.5,0.2,0.7,0.3
		c0.8,0.3,1.1,1,1.3,1.7c0.1,0.3-0.1,0.5-0.4,0.5c-0.2,0-0.4,0-0.6,0c-0.3,0-0.5-0.1-0.6-0.4c-0.3-0.8-1.3-1-2-0.9
		c-0.5,0.1-0.8,0.3-1,0.8c-0.2,0.4,0,1,0.5,1.2c0.3,0.1,0.6,0.2,0.9,0.3c0.4,0.1,0.9,0.1,1.3,0.2c0.5,0.1,0.9,0.2,1.3,0.5
		c0.4,0.3,0.7,0.7,0.8,1.2c0.4,1.5-0.5,2.8-1.8,3.2c-0.2,0.1-0.4,0.1-0.6,0.2c0,0.2,0,0.5,0,0.7c0,0.9,0,0.9-0.9,0.9
		c-0.1,0-0.2,0-0.3,0c-0.2,0-0.4-0.2-0.4-0.4C11.2,17.5,11.2,17.3,11.2,17.1z"/>
	<path class="st1" d="M20.9,12.1c0.1,1.5-0.3,2.8-1,4.1c-0.9,1.7-2.1,3-3.8,3.8c-0.4,0.2-0.8,0.4-1.3,0.5c-0.4,0.1-0.7,0-0.7-0.5
		c0-0.1,0-0.1,0-0.2c0-0.7,0-0.7,0.7-1c1.3-0.6,2.5-1.5,3.3-2.7c0.5-0.8,0.8-1.6,1.1-2.5c0.2-0.8,0.2-1.6,0.1-2.4
		c-0.1-1.3-0.6-2.5-1.4-3.6c-0.8-1.1-1.9-1.9-3.2-2.4c-0.3-0.1-0.5-0.4-0.5-0.7c0-0.2,0-0.3,0-0.5c0.1-0.5,0.2-0.7,0.7-0.5
		c0.2,0.1,0.4,0.1,0.5,0.2c0.8,0.4,1.5,0.8,2.2,1.3c0.9,0.7,1.6,1.6,2.1,2.5c0.5,0.9,0.9,1.9,1.1,3C20.9,11.2,20.9,11.7,20.9,12.1z"
		/>
	<path class="st1" d="M3.1,12.2c0-0.2,0-0.4,0-0.5c0-1.2,0.3-2.3,0.8-3.3c0.5-1.2,1.3-2.2,2.3-3C6.8,4.8,7.5,4.3,8.3,4
		c0.3-0.1,0.5-0.3,0.8-0.3c0.4-0.1,0.7,0.1,0.7,0.5c0,0.2,0,0.4,0,0.5c0,0.2-0.1,0.4-0.4,0.5c-1.2,0.5-2.2,1.1-3,2.1
		c-0.5,0.6-0.9,1.3-1.2,2C5,9.9,4.8,10.5,4.7,11.1c-0.1,0.4,0,0.8,0,1.2c0,1.3,0.4,2.5,1,3.6c0.3,0.5,0.7,1,1.1,1.4
		c0.7,0.7,1.4,1.2,2.3,1.5c0.8,0.2,0.8,0.9,0.6,1.5c-0.1,0.3-0.3,0.3-0.6,0.2c-1.2-0.4-2.3-1-3.3-1.9c-0.9-0.8-1.6-1.7-2.1-2.8
		c-0.3-0.7-0.5-1.5-0.7-2.2C3.1,13.1,3.1,12.6,3.1,12.2z"/>
</g>
</svg>
