<?xml version="1.0" encoding="utf-8"?>
<!-- Generator: Adobe Illustrator 28.0.0, SVG Export Plug-In . SVG Version: 6.00 Build 0)  -->
<svg version="1.1" id="Camada_1" xmlns="http://www.w3.org/2000/svg" xmlns:xlink="http://www.w3.org/1999/xlink" x="0px" y="0px"
	 viewBox="0 0 24 24" style="enable-background:new 0 0 24 24;" xml:space="preserve">
<style type="text/css">
	.st0{fill:#25A17C;}
	.st1{fill:#FFFFFF;}
	.st2{fill:#6177B9;}
	.st3{fill:#C0C9E8;}
	.st4{fill:#8294CB;}
	.st5{fill:#FEFEFF;}
	.st6{fill:#2956A3;}
	.st7{fill:#1D304D;}
	.st8{fill:#3272B9;}
</style>
<g>
	<path class="st2" d="M12.2,23.9c-0.2,0-0.4,0-0.6,0c0,0-0.1,0-0.1,0c-0.2,0-0.4,0-0.6,0c-0.6-0.1-1.2-0.2-1.9-0.3
		c-3.9-1-7-3.9-8.3-7.7c-0.3-0.8-0.4-1.6-0.5-2.4c0-0.3-0.1-0.7-0.1-1c0,0,0-0.1,0-0.1c0-0.2,0-0.4,0-0.6c0,0,0-0.1,0-0.1
		c0-0.1,0-0.3,0-0.4c0-0.6,0.1-1.3,0.3-1.9C1,7,2.2,4.9,4,3.3c2.2-2,4.7-3,7.6-3.1c0.3,0,0.5,0,0.8,0c0.3,0,0.5,0,0.8,0.1
		c0.6,0.1,1.3,0.2,1.9,0.3c3.1,0.9,5.5,2.6,7.1,5.4c1,1.7,1.6,3.6,1.7,5.6c0,0,0,0.1,0,0.1c0,0.2,0,0.4,0,0.6c0,0.1,0,0.3,0,0.4
		c0,0.3,0,0.6-0.1,0.9c-0.1,0.9-0.3,1.7-0.6,2.5c-1.5,4.3-5.5,7.5-10.3,7.8C12.6,23.9,12.4,23.9,12.2,23.9z M12.4,20.9
		c0,0,0.1-0.1,0.1-0.1c0.9-1.3,1.8-2.5,2.7-3.8c0.9-1.2,1.8-2.4,2.6-3.7c0,0,0,0,0-0.1c0,0-0.1,0-0.1,0c-0.3,0.2-0.6,0.3-0.9,0.5
		c-1.5,0.9-3,1.7-4.5,2.6c0,0-0.1,0-0.1,0c-1.8-1.1-3.7-2.1-5.5-3.2c0,0.1,0,0.1,0.1,0.1C8.7,15.9,10.5,18.4,12.4,20.9
		C12.3,20.9,12.3,20.9,12.4,20.9C12.4,20.9,12.4,20.9,12.4,20.9z M12.4,15.4C12.4,15.4,12.4,15.4,12.4,15.4c0.5-0.3,0.9-0.5,1.4-0.8
		c0.6-0.4,1.2-0.7,1.8-1.1c0.4-0.2,0.7-0.4,1.1-0.6c0.3-0.2,0.6-0.4,0.9-0.5c0.1,0,0.2-0.1,0.3-0.1c0,0,0.1,0,0-0.1
		c-0.3-0.5-0.6-1.1-1-1.6c-0.8-1.3-1.6-2.5-2.3-3.8c-0.7-1.2-1.4-2.3-2.1-3.5c0,0,0-0.1-0.1-0.1c0,0,0-0.1,0,0c0,0,0,0,0,0.1
		C10.6,6,8.9,8.8,7.2,11.6C7,11.8,6.9,12,6.8,12.2c0,0,0,0,0,0.1c0.3,0.2,0.6,0.3,0.9,0.5c1.2,0.7,2.4,1.4,3.5,2.1
		C11.6,15,12,15.2,12.4,15.4C12.3,15.4,12.3,15.4,12.4,15.4z"/>
	<path class="st1" d="M6.8,12.2C6.9,12,7,11.8,7.2,11.6c1.7-2.8,3.4-5.6,5.1-8.4c0,0,0-0.1,0-0.1c0,0,0,0,0,0c0,0,0,0.1,0,0.1
		c0,2.1,0,4.2,0,6.2c0,0,0,0.1,0,0.1c-0.3,0.1-0.5,0.2-0.8,0.4c-0.5,0.2-1,0.5-1.5,0.7c-0.5,0.2-0.9,0.4-1.4,0.6
		c-0.5,0.2-1,0.5-1.5,0.7C7,12.1,6.9,12.2,6.8,12.2z"/>
	<path class="st3" d="M12.4,9.7c0,0,0-0.1,0-0.1c0-2.1,0-4.2,0-6.2c0,0,0-0.1,0-0.1c0,0,0,0,0.1,0.1c0.7,1.2,1.4,2.3,2.1,3.5
		c0.8,1.3,1.6,2.5,2.3,3.8c0.3,0.5,0.6,1.1,1,1.6c0,0-0.1,0-0.1,0c-0.3-0.1-0.6-0.3-0.9-0.4c-0.4-0.2-0.8-0.4-1.2-0.5
		c-0.5-0.2-1-0.4-1.5-0.7c-0.5-0.2-1-0.5-1.5-0.7C12.6,9.8,12.5,9.8,12.4,9.7C12.4,9.7,12.4,9.7,12.4,9.7z"/>
	<path class="st3" d="M6.8,12.2c0.1,0,0.2-0.1,0.3-0.1c0.5-0.2,1-0.5,1.5-0.7c0.5-0.2,0.9-0.4,1.4-0.6c0.5-0.2,1-0.5,1.5-0.7
		c0.3-0.1,0.5-0.2,0.8-0.4c0,0,0,0,0,0c0,0,0,0,0,0.1c0,1.8,0,3.7,0,5.5c0,0,0,0.1,0,0.1c0,0-0.1,0-0.1,0c-0.3-0.2-0.7-0.4-1-0.6
		c-1.2-0.7-2.4-1.4-3.5-2.1C7.5,12.6,7.2,12.4,6.8,12.2C6.8,12.2,6.8,12.2,6.8,12.2z"/>
	<path class="st4" d="M12.4,15.4C12.4,15.4,12.4,15.4,12.4,15.4c0-1.9,0-3.8,0-5.6c0,0,0,0,0-0.1c0.1,0,0.2,0.1,0.3,0.1
		c0.5,0.2,1,0.5,1.5,0.7c0.5,0.2,1,0.4,1.5,0.7c0.4,0.2,0.8,0.4,1.2,0.5c0.3,0.1,0.6,0.3,0.9,0.4c0,0,0.1,0,0.1,0c0,0,0,0.1,0,0.1
		c-0.1,0.1-0.2,0.1-0.3,0.1c-0.3,0.2-0.6,0.4-0.9,0.5c-0.4,0.2-0.7,0.4-1.1,0.6c-0.6,0.4-1.2,0.7-1.8,1.1
		C13.3,14.9,12.9,15.1,12.4,15.4C12.4,15.4,12.4,15.4,12.4,15.4z"/>
	<path class="st5" d="M12.4,20.9C12.4,20.9,12.4,20.9,12.4,20.9C12.3,20.9,12.3,20.9,12.4,20.9c-1.9-2.6-3.7-5.1-5.5-7.6
		c0,0,0,0-0.1-0.1c1.9,1.1,3.7,2.1,5.5,3.2c0,0,0,0.1,0,0.1c0,1.4,0,2.8,0,4.1C12.4,20.8,12.4,20.9,12.4,20.9z"/>
	<path class="st3" d="M12.4,20.9c0,0,0-0.1,0-0.2c0-1.4,0-2.8,0-4.1c0-0.1,0-0.1,0-0.1c0,0,0.1,0,0.1,0c1.5-0.9,3-1.7,4.5-2.6
		c0.3-0.2,0.6-0.3,0.9-0.5c0,0,0,0,0.1,0c0,0,0,0.1,0,0.1c-0.9,1.2-1.8,2.4-2.6,3.7c-0.9,1.3-1.8,2.5-2.7,3.8
		C12.4,20.8,12.4,20.9,12.4,20.9z"/>
</g>
</svg>
