<?xml version="1.0" encoding="utf-8"?>
<!-- Generator: Adobe Illustrator 28.0.0, SVG Export Plug-In . SVG Version: 6.00 Build 0)  -->
<svg version="1.1" id="Camada_1" xmlns="http://www.w3.org/2000/svg" xmlns:xlink="http://www.w3.org/1999/xlink" x="0px" y="0px"
	 viewBox="0 0 24 24" style="enable-background:new 0 0 24 24;" xml:space="preserve">
<style type="text/css">
	.st0{fill:#25A17C;}
	.st1{fill:#FFFFFF;}
	.st2{fill:#6177B9;}
	.st3{fill:#C0C9E8;}
	.st4{fill:#8294CB;}
	.st5{fill:#FEFEFF;}
	.st6{fill:#2956A3;}
	.st7{fill:#1D304D;}
	.st8{fill:#3272B9;}
</style>
<g>
	<path class="st0" d="M23.8,12c0,6.5-5.3,11.9-11.9,11.8c-6.5,0-11.8-5.4-11.8-11.9c0-6.4,5.3-11.8,12-11.8
		C18.6,0.2,23.9,5.5,23.8,12z M12,5.7c-1.8,0-3.6,0-5.4,0c-0.2,0-0.2,0-0.2,0.2c0,0.9,0,1.7,0,2.6c0,0.1,0,0.2,0.2,0.2
		c0.3,0,0.7,0,1,0c0.9,0,1.9,0,2.8,0c0.1,0,0.2,0,0.2,0.1c0,0.4,0,0.9,0,1.3c0,0.1,0,0.1-0.1,0.1c-0.2,0-0.4,0-0.6,0
		c-0.5,0-1,0.1-1.5,0.1c-0.7,0.1-1.4,0.2-2,0.4c-0.4,0.1-0.7,0.2-1.1,0.4c-0.1,0.1-0.2,0.2-0.3,0.3c-0.2,0.2-0.1,0.5,0,0.7
		c0.1,0.1,0.2,0.2,0.3,0.2c0.2,0.1,0.4,0.2,0.7,0.3c0.7,0.2,1.4,0.4,2.2,0.5c0.4,0.1,0.8,0.1,1.2,0.1c0.3,0,0.7,0.1,1,0.1
		c0.2,0,0.2,0,0.2,0.2c0,1.7,0,3.5,0,5.2c0,0.2,0,0.2,0.2,0.2c0.8,0,1.7,0,2.5,0c0,0,0.1,0,0.1,0c0.1,0,0.1,0,0.1-0.1
		c0,0,0-0.1,0-0.1c0-1.7,0-3.5,0-5.2c0-0.2,0-0.2,0.2-0.2c0.3,0,0.6,0,0.8-0.1c0.4,0,0.9-0.1,1.3-0.1c0.6-0.1,1.2-0.2,1.8-0.4
		c0.3-0.1,0.6-0.2,0.9-0.4c0.2-0.1,0.3-0.2,0.5-0.4c0.2-0.2,0.2-0.5,0-0.7c-0.1-0.1-0.2-0.2-0.3-0.2c-0.3-0.2-0.6-0.3-0.9-0.4
		c-0.9-0.3-1.9-0.4-2.8-0.5c-0.4,0-0.8-0.1-1.2-0.1c-0.1,0-0.1,0-0.2,0c0,0-0.1,0-0.1-0.1c0,0,0-0.1,0-0.1c0-0.4,0-0.8,0-1.2
		c0-0.2,0-0.2,0.2-0.2c1.2,0,2.5,0,3.7,0c0.2,0,0.2,0,0.2-0.2c0-0.8,0-1.7,0-2.5c0-0.2,0-0.2-0.2-0.2C15.5,5.7,13.7,5.7,12,5.7z"/>
	<path class="st1" d="M12,5.7c1.8,0,3.5,0,5.3,0c0.2,0,0.2,0,0.2,0.2c0,0.8,0,1.7,0,2.5c0,0.2,0,0.2-0.2,0.2c-1.2,0-2.5,0-3.7,0
		c-0.2,0-0.2,0-0.2,0.2c0,0.4,0,0.8,0,1.2c0,0,0,0.1,0,0.1c0,0,0,0.1,0.1,0.1c0.1,0,0.1,0,0.2,0c0.4,0,0.8,0,1.2,0.1
		c1,0.1,1.9,0.2,2.8,0.5c0.3,0.1,0.6,0.2,0.9,0.4c0.1,0.1,0.2,0.1,0.3,0.2c0.2,0.2,0.2,0.5,0,0.7c-0.1,0.2-0.3,0.3-0.5,0.4
		c-0.3,0.2-0.6,0.3-0.9,0.4c-0.6,0.2-1.2,0.3-1.8,0.4c-0.4,0.1-0.9,0.1-1.3,0.1c-0.3,0-0.6,0-0.8,0.1c-0.2,0-0.2,0-0.2,0.2
		c0,1.7,0,3.5,0,5.2c0,0,0,0.1,0,0.1c0,0.1,0,0.1-0.1,0.1c0,0-0.1,0-0.1,0c-0.8,0-1.7,0-2.5,0c-0.2,0-0.2,0-0.2-0.2
		c0-1.7,0-3.5,0-5.2c0-0.2,0-0.2-0.2-0.2c-0.3,0-0.7,0-1-0.1c-0.4,0-0.8-0.1-1.2-0.1c-0.7-0.1-1.5-0.2-2.2-0.5
		c-0.2-0.1-0.5-0.2-0.7-0.3c-0.1-0.1-0.2-0.1-0.3-0.2c-0.2-0.2-0.2-0.5,0-0.7c0.1-0.1,0.2-0.2,0.3-0.3c0.3-0.2,0.7-0.3,1.1-0.4
		c0.7-0.2,1.3-0.3,2-0.4c0.5-0.1,1-0.1,1.5-0.1c0.2,0,0.4,0,0.6,0c0.1,0,0.1,0,0.1-0.1c0-0.4,0-0.9,0-1.3c0-0.1,0-0.1-0.2-0.1
		c-0.9,0-1.9,0-2.8,0c-0.3,0-0.7,0-1,0c-0.1,0-0.2,0-0.2-0.2c0-0.9,0-1.7,0-2.6c0-0.2,0-0.2,0.2-0.2C8.4,5.7,10.2,5.7,12,5.7z
		 M11.9,13.1C11.9,13.1,11.9,13.1,11.9,13.1c0.4,0,0.9,0,1.3,0c0.4,0,0.7,0,1.1-0.1c0.4,0,0.9-0.1,1.3-0.1c0.6-0.1,1.1-0.2,1.7-0.3
		c0.3-0.1,0.6-0.2,0.9-0.4c0.1-0.1,0.2-0.1,0.3-0.2c0.1-0.1,0.1-0.2,0.1-0.3c0-0.1-0.1-0.2-0.2-0.3c-0.3-0.2-0.6-0.3-0.9-0.4
		c-0.8-0.3-1.7-0.4-2.5-0.5c-0.4-0.1-0.9-0.1-1.3-0.1c-0.2,0-0.2,0-0.2,0.2c0,0.7,0,1.3,0,2c0,0,0,0.1,0,0.1c0,0.1,0,0.1-0.1,0.1
		c-0.1,0-0.3,0-0.4,0c-0.5,0-1.1,0-1.6,0c-0.2,0-0.4,0-0.6,0c-0.1,0-0.1,0-0.1-0.1c0,0,0-0.1,0-0.1c0-0.6,0-1.2,0-1.8
		c0-0.1,0-0.1,0-0.2c0-0.1,0-0.1-0.1-0.1c-0.1,0-0.2,0-0.3,0c-0.3,0-0.7,0-1,0.1c-0.7,0.1-1.4,0.2-2.1,0.3c-0.5,0.1-0.9,0.2-1.3,0.4
		c-0.1,0.1-0.3,0.2-0.4,0.3c-0.2,0.2-0.2,0.4,0.1,0.6c0,0,0,0,0,0c0.2,0.1,0.4,0.2,0.5,0.3c0.9,0.3,1.8,0.5,2.8,0.6
		C9,13,9.4,13,9.7,13c0.4,0,0.8,0.1,1.2,0.1C11.3,13.1,11.6,13.1,11.9,13.1z"/>
	<path class="st0" d="M11.9,13.1c-0.3,0-0.6,0-1,0c-0.4,0-0.8,0-1.2-0.1c-0.3,0-0.6,0-1-0.1c-0.9-0.1-1.9-0.2-2.8-0.6
		c-0.2-0.1-0.4-0.2-0.5-0.3c0,0,0,0,0,0c-0.2-0.2-0.2-0.3-0.1-0.6c0.1-0.1,0.2-0.2,0.4-0.3C6.1,11,6.5,10.9,7,10.8
		c0.7-0.2,1.4-0.3,2.1-0.3c0.3,0,0.7-0.1,1-0.1c0.1,0,0.2,0,0.3,0c0.1,0,0.1,0,0.1,0.1c0,0.1,0,0.1,0,0.2c0,0.6,0,1.2,0,1.8
		c0,0,0,0.1,0,0.1c0,0.1,0,0.1,0.1,0.1c0.2,0,0.4,0,0.6,0c0.5,0,1.1,0,1.6,0c0.1,0,0.3,0,0.4,0c0.1,0,0.1,0,0.1-0.1c0,0,0-0.1,0-0.1
		c0-0.7,0-1.3,0-2c0-0.2,0-0.2,0.2-0.2c0.4,0,0.9,0.1,1.3,0.1c0.8,0.1,1.7,0.2,2.5,0.5c0.3,0.1,0.7,0.2,0.9,0.4
		c0.1,0.1,0.2,0.2,0.2,0.3c0,0.1,0,0.2-0.1,0.3c-0.1,0.1-0.2,0.1-0.3,0.2c-0.3,0.2-0.6,0.3-0.9,0.4c-0.6,0.1-1.1,0.3-1.7,0.3
		c-0.4,0.1-0.9,0.1-1.3,0.1c-0.4,0-0.7,0-1.1,0.1C12.8,13.1,12.4,13.1,11.9,13.1C11.9,13.1,11.9,13.1,11.9,13.1z"/>
</g>
</svg>
